# xmcd
#
# Track frame offsets: 
#        150
#        12978
#        36156
#        49466
#        77982
#
# Disc length: 1219 seconds
#
# Revision: 1
# Processed by: cddbd v1.5.2PL0 Copyright (c) Steve Scherf et al.
# Submitted via: ExactAudioCopy v0.95b4
#
DISCID=3c04c105
DTITLE=Dead Congregation - Purifying Consecrated Ground
DYEAR=2005
DGENRE=Death Metal
TTITLE0=Vomitchrist
TTITLE1=Lucid Curse
TTITLE2=Feasting Angelcunts
TTITLE3=Auguring An Eternal War
TTITLE4=Downward Spiral Of Morbidity
EXTD=
EXTT0=
EXTT1=
EXTT2=
EXTT3=
EXTT4=
PLAYORDER=
